<svg xmlns="http://www.w3.org/2000/svg" width="612" height="612" viewBox="0 0 612 612" xml:space="preserve" style="stroke-width:2 stroke:blue; fill:#1E90FF"><path d="M306 0C137.012 0 0 137.012 0 306s137.012 306 306 306 306-137.012 306-306S474.988 0 306 0m0 557.814C167.167 557.814 54.186 444.838 54.186 306 54.186 167.133 167.162 54.186 306 54.186c138.833 0 251.814 112.942 251.814 251.814 0 138.833-112.981 251.814-251.814 251.814"/><path d="M521.84 315.562c0-124.475-100.923-225.402-225.402-225.402v127.917c-44.862 4.776-79.818 42.725-79.818 88.854 0 49.367 40.019 89.382 89.381 89.382 46.45 0 84.604-35.439 88.945-80.756H521.84z"/><circle cx="207.057" cy="134.654" r="24.576"/><circle cx="134.654" cy="207.057" r="24.575"/><circle cx="108.114" cy="306" r="24.575"/><circle cx="132.685" cy="404.943" r="24.576"/><circle cx="207.057" cy="477.345" r="24.576"/><circle cx="306" cy="503.872" r="24.575"/><circle cx="404.91" cy="477.345" r="24.576"/><circle cx="477.346" cy="404.943" r="24.576"/></svg>